PathFileType	4	(X/Y/Z)	s07c0202.trc
DataRate	CameraRate	NumFrames	NumMarkers	Units	OrigDataRate	OrigDataStartFrame	OrigNumFrames
200	200	4	48	mm	200	250	2000
Frame#	Time	racr			lacr			c7			jug			rlel			rdr			llel			ldr			s2			lic			ric			lasi			rasi			rpsi			lpsi			rgt			lgt			rth1			rth2			rth3			rth4			rlfc			rmfc			rsh1			rsh2			rsh3			rsh4			rlmal			rcal			rtoe			rmt5			lth1			lth2			lth4			lth3			llfc			lmfc			lsh1			lsh2			lsh3			lsh4			llmal			lcal			ltoe			lmt5			SBIKE			LBIKE			RBIKE			
		X1	Y1	Z1	X2	Y2	Z2	X3	Y3	Z3	X4	Y4	Z4	X5	Y5	Z5	X6	Y6	Z6	X7	Y7	Z7	X8	Y8	Z8	X9	Y9	Z9	X10	Y10	Z10	X11	Y11	Z11	X12	Y12	Z12	X13	Y13	Z13	X14	Y14	Z14	X15	Y15	Z15	X16	Y16	Z16	X17	Y17	Z17	X18	Y18	Z18	X19	Y19	Z19	X20	Y20	Z20	X21	Y21	Z21	X22	Y22	Z22	X23	Y23	Z23	X24	Y24	Z24	X25	Y25	Z25	X26	Y26	Z26	X27	Y27	Z27	X28	Y28	Z28	X29	Y29	Z29	X30	Y30	Z30	X31	Y31	Z31	X32	Y32	Z32	X33	Y33	Z33	X34	Y34	Z34	X35	Y35	Z35	X36	Y36	Z36	X37	Y37	Z37	X38	Y38	Z38	X39	Y39	Z39	X40	Y40	Z40	X41	Y41	Z41	X42	Y42	Z42	X43	Y43	Z43	X44	Y44	Z44	X45	Y45	Z45	X46	Y46	Z46	X47	Y47	Z47	X48	Y48	Z48	
250	1.2500	421.143463	1471.573468	-94.847710	411.287085	1458.864242	-378.482577	392.101236	1498.017066	-241.197744	369.260387	1355.480881	-236.323349	497.615723	1154.185247	31.882133	692.564222	939.341856	-53.101692	501.695664	1153.487246	-493.899969	688.537550	926.252404	-451.781450	-142.515677	1195.775085	-253.022103	23.399474	1250.122958	-393.043056	25.075111	1242.674162	-98.118444	58.007601	1170.020577	-364.457643	39.453143	1186.212670	-116.069564	-119.548401	1236.289648	-199.941318	-103.005292	1244.742861	-308.746167	-29.311034	1124.397176	-53.630118	-30.634887	1090.531760	-419.588859	114.149812	1071.792155	-53.536617	200.458681	1061.828469	-66.668831	272.106816	1015.425363	-63.914858	210.067868	1091.779845	-86.422732	392.662002	939.285897	-100.340635	387.153783	923.244735	-206.582743	343.600983	804.810584	-75.189926	331.777152	717.390836	-93.452505	282.457585	646.591036	-87.559923	348.511068	714.800640	-129.492509	225.864075	523.956723	-87.222004	154.577870	494.162569	-115.916143	435.709968	423.592809	-131.210110	354.265790	404.948184	-59.575804	33.719449	985.937304	-426.143127	105.219643	933.958193	-428.636272	133.443066	956.255299	-421.013325	141.551463	852.687994	-423.073281	236.396890	700.513962	-390.248277	222.529422	684.548536	-292.727978	143.598594	581.467169	-412.399213	107.348747	505.784009	-392.188145	36.833899	450.697798	-401.645256	110.161946	507.459916	-350.287838	-53.281184	351.574633	-400.229710	-133.027643	333.007436	-366.060598	136.818656	229.715609	-358.038609	53.627713	229.169351	-423.008879	-263.482059	968.072790	-238.129860	-83.259228	79.077089	-437.458342	-83.129602	79.101896	-39.734056	
251	1.2550	421.167326	1471.556340	-94.888131	411.287926	1458.838985	-378.481392	392.106343	1498.005983	-241.170755	369.297992	1355.471921	-236.328310	497.635044	1154.185737	31.906763	692.580269	939.337616	-53.098516	501.713308	1153.479207	-493.947019	688.534651	926.238611	-451.793563	-142.494254	1195.768169	-253.042323	23.426174	1250.101155	-393.050506	25.081291	1242.704112	-98.163004	58.015580	1169.993007	-364.468037	39.452307	1186.232854	-116.077474	-119.557065	1236.318106	-199.964207	-102.877752	1244.625535	-308.650240	-29.315705	1124.399896	-53.626691	-30.644847	1090.499496	-419.604785	114.150904	1071.814195	-53.554290	200.473999	1061.846513	-66.695479	272.129998	1015.440830	-63.936802	210.084495	1091.789832	-86.437231	392.679676	939.321434	-100.363612	387.151645	923.279773	-206.600699	343.615730	804.855319	-75.214626	331.796757	717.432656	-93.445306	282.435351	646.631569	-87.559431	348.502815	714.857275	-129.523593	225.823369	524.010877	-87.232535	154.553160	494.207967	-115.938739	435.665290	423.654919	-131.178949	354.216355	405.008851	-59.575940	33.700182	985.894302	-426.146482	105.190621	933.928242	-428.652896	133.421371	956.193644	-421.026432	141.524029	852.611972	-423.064381	236.316184	700.433188	-390.262881	222.455441	684.476670	-292.736837	143.538310	581.408028	-412.417320	107.319662	505.626772	-392.134358	36.792237	450.615382	-401.644042	110.101594	507.419650	-350.310528	-53.459452	351.100514	-399.619628	-133.049815	332.856386	-366.053298	136.844762	229.695128	-358.040446	53.651093	229.110255	-422.993555	-263.467585	968.064143	-238.152170	-83.234919	79.060756	-437.452924	-83.127371	79.097258	-39.732499	
252	1.2600	421.207978	1471.528022	-94.887907	411.320513	1458.837095	-378.523911	392.137909	1497.973712	-241.175209	369.319342	1355.428546	-236.344502	497.636442	1154.151314	31.919007	692.576356	939.324518	-53.077717	501.732371	1153.478151	-493.991539	688.549022	926.247394	-451.830682	-142.475530	1195.759309	-253.073832	23.428816	1250.084258	-393.043423	25.049031	1242.712553	-98.197713	58.024633	1169.985512	-364.460733	39.460029	1186.243473	-116.089848	-119.549037	1236.317485	-200.001809	-102.986438	1244.717649	-308.789312	-29.308686	1124.398014	-53.644028	-30.643775	1090.485395	-419.611133	114.148462	1071.829415	-53.582508	200.480418	1061.855297	-66.708201	272.142554	1015.470103	-63.957440	210.083913	1091.821191	-86.438527	392.705593	939.349903	-100.367095	387.173797	923.305585	-206.601282	343.628170	804.905591	-75.222851	331.814733	717.472254	-93.465008	282.474825	646.669134	-87.562692	348.500385	714.894245	-129.561877	225.812050	524.069686	-87.223243	154.517769	494.310192	-115.903066	435.656324	423.814525	-131.301074	354.203304	405.056591	-59.581013	33.677273	985.861506	-426.166724	105.169429	933.883676	-428.647838	133.393901	956.144305	-421.053175	141.475746	852.563252	-423.096293	236.263572	700.366975	-390.261882	222.405825	684.438237	-292.728812	143.481785	581.333407	-412.414856	107.261764	505.553476	-392.130541	36.742873	450.540841	-401.636545	110.049578	507.356359	-350.304257	-53.384808	351.309393	-400.108895	-133.077378	332.730647	-366.038648	136.849182	229.684256	-358.039743	53.673458	229.079666	-423.003711	-263.483324	968.068883	-238.148144	-83.250332	79.054012	-437.449841	-83.129287	79.093109	-39.725526	
253	1.2650	421.226641	1471.501525	-94.913118	411.340557	1458.810570	-378.503116	392.157404	1497.951351	-241.214029	369.319577	1355.416405	-236.350123	497.623338	1154.122645	31.981813	692.554216	939.318190	-53.069649	501.756615	1153.481275	-494.045318	688.541107	926.241877	-451.857533	-142.492563	1195.756621	-253.086222	23.464228	1250.070381	-393.076134	25.055206	1242.742381	-98.242257	58.026480	1169.965446	-364.465295	39.460639	1186.256640	-116.128114	-119.546663	1236.326243	-200.017139	-102.964074	1244.715855	-308.822161	-29.291726	1124.411430	-53.669571	-30.643597	1090.454141	-419.611526	114.184930	1071.849918	-53.595245	200.511030	1061.873412	-66.739920	272.222893	1015.484531	-63.906269	210.098447	1091.859389	-86.451707	392.729420	939.399199	-100.375177	387.193401	923.362049	-206.631125	343.685768	804.937870	-75.229858	331.855132	717.534129	-93.490804	282.476147	646.731371	-87.564536	348.521930	714.952849	-129.560877	225.801998	524.156977	-87.234411	154.524444	494.369361	-115.921738	435.638677	423.827016	-131.278800	354.176266	405.110025	-59.569070	33.663246	985.812556	-426.185006	105.127227	933.826373	-428.659044	133.372526	956.087577	-421.043597	141.420861	852.518817	-423.108597	236.183714	700.300418	-390.264770	222.339259	684.375691	-292.733437	143.410102	581.274712	-412.406702	107.225091	505.487311	-392.112513	36.685618	450.490834	-401.629370	109.998401	507.288411	-350.296612	-53.415444	351.042912	-399.807203	-133.130090	332.623474	-366.032048	136.871431	229.697985	-358.041672	53.660061	229.043595	-423.000583	-263.492643	968.069549	-238.136480	-83.244930	79.061465	-437.449918	-83.130862	79.100938	-39.728400	
